<mxfile host="app.diagrams.net" agent="Mozilla/5.0 (Windows NT 10.0; Win64; x64) AppleWebKit/537.36 (KHTML, like Gecko) Chrome/130.0.0.0 YaBrowser/24.12.0.0 Safari/537.36" version="26.0.4">
  <diagram name="Страница — 1" id="3NzDtRzj4ghybmo-cLu4">
    <mxGraphModel dx="1190" dy="567" grid="0" gridSize="10" guides="1" tooltips="1" connect="1" arrows="1" fold="1" page="1" pageScale="1" pageWidth="3300" pageHeight="4681" math="0" shadow="0">
      <root>
        <mxCell id="0" />
        <mxCell id="1" parent="0" />
        <mxCell id="7UIkXQbBvX0Gxile1hia-5" style="edgeStyle=orthogonalEdgeStyle;rounded=0;orthogonalLoop=1;jettySize=auto;html=1;startArrow=classic;startFill=1;" parent="1" source="7UIkXQbBvX0Gxile1hia-1" target="7UIkXQbBvX0Gxile1hia-2" edge="1">
          <mxGeometry relative="1" as="geometry" />
        </mxCell>
        <mxCell id="7UIkXQbBvX0Gxile1hia-6" style="edgeStyle=orthogonalEdgeStyle;rounded=0;orthogonalLoop=1;jettySize=auto;html=1;dashed=1;" parent="1" source="7UIkXQbBvX0Gxile1hia-1" target="7UIkXQbBvX0Gxile1hia-3" edge="1">
          <mxGeometry relative="1" as="geometry" />
        </mxCell>
        <mxCell id="7UIkXQbBvX0Gxile1hia-1" value="Веб интерфейс&lt;div&gt;&lt;br&gt;&lt;div&gt;Frontend&lt;/div&gt;&lt;/div&gt;" style="rounded=1;whiteSpace=wrap;html=1;" parent="1" vertex="1">
          <mxGeometry x="237" y="93" width="120" height="60" as="geometry" />
        </mxCell>
        <mxCell id="7UIkXQbBvX0Gxile1hia-2" value="Мобильное приложение" style="rounded=1;whiteSpace=wrap;html=1;" parent="1" vertex="1">
          <mxGeometry x="497" y="93" width="120" height="60" as="geometry" />
        </mxCell>
        <mxCell id="7UIkXQbBvX0Gxile1hia-7" style="edgeStyle=orthogonalEdgeStyle;rounded=0;orthogonalLoop=1;jettySize=auto;html=1;dashed=1;" parent="1" source="7UIkXQbBvX0Gxile1hia-3" target="7UIkXQbBvX0Gxile1hia-4" edge="1">
          <mxGeometry relative="1" as="geometry" />
        </mxCell>
        <mxCell id="7UIkXQbBvX0Gxile1hia-3" value="Backend&lt;div&gt;&lt;br&gt;&lt;/div&gt;&lt;div&gt;Django&lt;/div&gt;" style="rounded=1;whiteSpace=wrap;html=1;" parent="1" vertex="1">
          <mxGeometry x="237" y="232" width="120" height="60" as="geometry" />
        </mxCell>
        <mxCell id="7UIkXQbBvX0Gxile1hia-4" value="Data Layer&lt;div&gt;&lt;br&gt;&lt;/div&gt;&lt;div&gt;PostgreSQL&lt;/div&gt;" style="rounded=1;whiteSpace=wrap;html=1;" parent="1" vertex="1">
          <mxGeometry x="237" y="371" width="120" height="60" as="geometry" />
        </mxCell>
        <mxCell id="XojkI3dCHt4RW8gFZH2C-5" value="Table" style="swimlane;fontStyle=0;childLayout=stackLayout;horizontal=1;startSize=30;horizontalStack=0;resizeParent=1;resizeParentMax=0;resizeLast=0;collapsible=1;marginBottom=0;whiteSpace=wrap;html=1;" vertex="1" parent="1">
          <mxGeometry x="743" y="110" width="140" height="120" as="geometry" />
        </mxCell>
        <mxCell id="XojkI3dCHt4RW8gFZH2C-6" value="id: int" style="text;strokeColor=none;fillColor=none;align=left;verticalAlign=middle;spacingLeft=4;spacingRight=4;overflow=hidden;points=[[0,0.5],[1,0.5]];portConstraint=eastwest;rotatable=0;whiteSpace=wrap;html=1;" vertex="1" parent="XojkI3dCHt4RW8gFZH2C-5">
          <mxGeometry y="30" width="140" height="30" as="geometry" />
        </mxCell>
        <mxCell id="XojkI3dCHt4RW8gFZH2C-7" value="capacity: int" style="text;strokeColor=none;fillColor=none;align=left;verticalAlign=middle;spacingLeft=4;spacingRight=4;overflow=hidden;points=[[0,0.5],[1,0.5]];portConstraint=eastwest;rotatable=0;whiteSpace=wrap;html=1;" vertex="1" parent="XojkI3dCHt4RW8gFZH2C-5">
          <mxGeometry y="60" width="140" height="30" as="geometry" />
        </mxCell>
        <mxCell id="XojkI3dCHt4RW8gFZH2C-8" value="location: text" style="text;strokeColor=none;fillColor=none;align=left;verticalAlign=middle;spacingLeft=4;spacingRight=4;overflow=hidden;points=[[0,0.5],[1,0.5]];portConstraint=eastwest;rotatable=0;whiteSpace=wrap;html=1;" vertex="1" parent="XojkI3dCHt4RW8gFZH2C-5">
          <mxGeometry y="90" width="140" height="30" as="geometry" />
        </mxCell>
        <mxCell id="XojkI3dCHt4RW8gFZH2C-9" value="Order" style="swimlane;fontStyle=0;childLayout=stackLayout;horizontal=1;startSize=30;horizontalStack=0;resizeParent=1;resizeParentMax=0;resizeLast=0;collapsible=1;marginBottom=0;whiteSpace=wrap;html=1;" vertex="1" parent="1">
          <mxGeometry x="1017" y="50" width="140" height="210" as="geometry" />
        </mxCell>
        <mxCell id="XojkI3dCHt4RW8gFZH2C-10" value="id: int" style="text;strokeColor=none;fillColor=none;align=left;verticalAlign=middle;spacingLeft=4;spacingRight=4;overflow=hidden;points=[[0,0.5],[1,0.5]];portConstraint=eastwest;rotatable=0;whiteSpace=wrap;html=1;" vertex="1" parent="XojkI3dCHt4RW8gFZH2C-9">
          <mxGeometry y="30" width="140" height="30" as="geometry" />
        </mxCell>
        <mxCell id="XojkI3dCHt4RW8gFZH2C-11" value="table_id: int" style="text;strokeColor=none;fillColor=none;align=left;verticalAlign=middle;spacingLeft=4;spacingRight=4;overflow=hidden;points=[[0,0.5],[1,0.5]];portConstraint=eastwest;rotatable=0;whiteSpace=wrap;html=1;" vertex="1" parent="XojkI3dCHt4RW8gFZH2C-9">
          <mxGeometry y="60" width="140" height="30" as="geometry" />
        </mxCell>
        <mxCell id="XojkI3dCHt4RW8gFZH2C-13" value="status: text&lt;span style=&quot;color: rgba(0, 0, 0, 0); font-family: monospace; font-size: 0px; text-wrap-mode: nowrap;&quot;&gt;%3CmxGraphModel%3E%3Croot%3E%3CmxCell%20id%3D%220%22%2F%3E%3CmxCell%20id%3D%221%22%20parent%3D%220%22%2F%3E%3CmxCell%20id%3D%222%22%20value%3D%22Table%22%20style%3D%22swimlane%3BfontStyle%3D0%3BchildLayout%3DstackLayout%3Bhorizontal%3D1%3BstartSize%3D30%3BhorizontalStack%3D0%3BresizeParent%3D1%3BresizeParentMax%3D0%3BresizeLast%3D0%3Bcollapsible%3D1%3BmarginBottom%3D0%3BwhiteSpace%3Dwrap%3Bhtml%3D1%3B%22%20vertex%3D%221%22%20parent%3D%221%22%3E%3CmxGeometry%20x%3D%22757%22%20y%3D%2250%22%20width%3D%22140%22%20height%3D%22120%22%20as%3D%22geometry%22%2F%3E%3C%2FmxCell%3E%3CmxCell%20id%3D%223%22%20value%3D%22id%3A%20int%22%20style%3D%22text%3BstrokeColor%3Dnone%3BfillColor%3Dnone%3Balign%3Dleft%3BverticalAlign%3Dmiddle%3BspacingLeft%3D4%3BspacingRight%3D4%3Boverflow%3Dhidden%3Bpoints%3D%5B%5B0%2C0.5%5D%2C%5B1%2C0.5%5D%5D%3BportConstraint%3Deastwest%3Brotatable%3D0%3BwhiteSpace%3Dwrap%3Bhtml%3D1%3B%22%20vertex%3D%221%22%20parent%3D%222%22%3E%3CmxGeometry%20y%3D%2230%22%20width%3D%22140%22%20height%3D%2230%22%20as%3D%22geometry%22%2F%3E%3C%2FmxCell%3E%3CmxCell%20id%3D%224%22%20value%3D%22capacity%3A%20int%22%20style%3D%22text%3BstrokeColor%3Dnone%3BfillColor%3Dnone%3Balign%3Dleft%3BverticalAlign%3Dmiddle%3BspacingLeft%3D4%3BspacingRight%3D4%3Boverflow%3Dhidden%3Bpoints%3D%5B%5B0%2C0.5%5D%2C%5B1%2C0.5%5D%5D%3BportConstraint%3Deastwest%3Brotatable%3D0%3BwhiteSpace%3Dwrap%3Bhtml%3D1%3B%22%20vertex%3D%221%22%20parent%3D%222%22%3E%3CmxGeometry%20y%3D%2260%22%20width%3D%22140%22%20height%3D%2230%22%20as%3D%22geometry%22%2F%3E%3C%2FmxCell%3E%3CmxCell%20id%3D%225%22%20value%3D%22location%3A%20text%22%20style%3D%22text%3BstrokeColor%3Dnone%3BfillColor%3Dnone%3Balign%3Dleft%3BverticalAlign%3Dmiddle%3BspacingLeft%3D4%3BspacingRight%3D4%3Boverflow%3Dhidden%3Bpoints%3D%5B%5B0%2C0.5%5D%2C%5B1%2C0.5%5D%5D%3BportConstraint%3Deastwest%3Brotatable%3D0%3BwhiteSpace%3Dwrap%3Bhtml%3D1%3B%22%20vertex%3D%221%22%20parent%3D%222%22%3E%3CmxGeometry%20y%3D%2290%22%20width%3D%22140%22%20height%3D%2230%22%20as%3D%22geometry%22%2F%3E%3C%2FmxCell%3E%3C%2Froot%3E%3C%2FmxGraphModel%3E&lt;/span&gt;" style="text;strokeColor=none;fillColor=none;align=left;verticalAlign=middle;spacingLeft=4;spacingRight=4;overflow=hidden;points=[[0,0.5],[1,0.5]];portConstraint=eastwest;rotatable=0;whiteSpace=wrap;html=1;" vertex="1" parent="XojkI3dCHt4RW8gFZH2C-9">
          <mxGeometry y="90" width="140" height="30" as="geometry" />
        </mxCell>
        <mxCell id="XojkI3dCHt4RW8gFZH2C-14" value="total_price: int" style="text;strokeColor=none;fillColor=none;align=left;verticalAlign=middle;spacingLeft=4;spacingRight=4;overflow=hidden;points=[[0,0.5],[1,0.5]];portConstraint=eastwest;rotatable=0;whiteSpace=wrap;html=1;" vertex="1" parent="XojkI3dCHt4RW8gFZH2C-9">
          <mxGeometry y="120" width="140" height="30" as="geometry" />
        </mxCell>
        <mxCell id="XojkI3dCHt4RW8gFZH2C-15" value="created_at: date" style="text;strokeColor=none;fillColor=none;align=left;verticalAlign=middle;spacingLeft=4;spacingRight=4;overflow=hidden;points=[[0,0.5],[1,0.5]];portConstraint=eastwest;rotatable=0;whiteSpace=wrap;html=1;" vertex="1" parent="XojkI3dCHt4RW8gFZH2C-9">
          <mxGeometry y="150" width="140" height="30" as="geometry" />
        </mxCell>
        <mxCell id="XojkI3dCHt4RW8gFZH2C-12" value="updated_at: date" style="text;strokeColor=none;fillColor=none;align=left;verticalAlign=middle;spacingLeft=4;spacingRight=4;overflow=hidden;points=[[0,0.5],[1,0.5]];portConstraint=eastwest;rotatable=0;whiteSpace=wrap;html=1;" vertex="1" parent="XojkI3dCHt4RW8gFZH2C-9">
          <mxGeometry y="180" width="140" height="30" as="geometry" />
        </mxCell>
        <mxCell id="XojkI3dCHt4RW8gFZH2C-73" style="edgeStyle=orthogonalEdgeStyle;rounded=0;orthogonalLoop=1;jettySize=auto;html=1;endArrow=none;endFill=0;" edge="1" parent="1" source="XojkI3dCHt4RW8gFZH2C-16" target="XojkI3dCHt4RW8gFZH2C-23">
          <mxGeometry relative="1" as="geometry" />
        </mxCell>
        <mxCell id="XojkI3dCHt4RW8gFZH2C-16" value="OrderItem" style="swimlane;fontStyle=0;childLayout=stackLayout;horizontal=1;startSize=30;horizontalStack=0;resizeParent=1;resizeParentMax=0;resizeLast=0;collapsible=1;marginBottom=0;whiteSpace=wrap;html=1;" vertex="1" parent="1">
          <mxGeometry x="1277" y="65" width="140" height="180" as="geometry" />
        </mxCell>
        <mxCell id="XojkI3dCHt4RW8gFZH2C-17" value="id: int" style="text;strokeColor=none;fillColor=none;align=left;verticalAlign=middle;spacingLeft=4;spacingRight=4;overflow=hidden;points=[[0,0.5],[1,0.5]];portConstraint=eastwest;rotatable=0;whiteSpace=wrap;html=1;" vertex="1" parent="XojkI3dCHt4RW8gFZH2C-16">
          <mxGeometry y="30" width="140" height="30" as="geometry" />
        </mxCell>
        <mxCell id="XojkI3dCHt4RW8gFZH2C-18" value="order_id: int" style="text;strokeColor=none;fillColor=none;align=left;verticalAlign=middle;spacingLeft=4;spacingRight=4;overflow=hidden;points=[[0,0.5],[1,0.5]];portConstraint=eastwest;rotatable=0;whiteSpace=wrap;html=1;" vertex="1" parent="XojkI3dCHt4RW8gFZH2C-16">
          <mxGeometry y="60" width="140" height="30" as="geometry" />
        </mxCell>
        <mxCell id="XojkI3dCHt4RW8gFZH2C-19" value="dish_id: int" style="text;strokeColor=none;fillColor=none;align=left;verticalAlign=middle;spacingLeft=4;spacingRight=4;overflow=hidden;points=[[0,0.5],[1,0.5]];portConstraint=eastwest;rotatable=0;whiteSpace=wrap;html=1;" vertex="1" parent="XojkI3dCHt4RW8gFZH2C-16">
          <mxGeometry y="90" width="140" height="30" as="geometry" />
        </mxCell>
        <mxCell id="XojkI3dCHt4RW8gFZH2C-20" value="quantity: int" style="text;strokeColor=none;fillColor=none;align=left;verticalAlign=middle;spacingLeft=4;spacingRight=4;overflow=hidden;points=[[0,0.5],[1,0.5]];portConstraint=eastwest;rotatable=0;whiteSpace=wrap;html=1;" vertex="1" parent="XojkI3dCHt4RW8gFZH2C-16">
          <mxGeometry y="120" width="140" height="30" as="geometry" />
        </mxCell>
        <mxCell id="XojkI3dCHt4RW8gFZH2C-21" value="notes: text" style="text;strokeColor=none;fillColor=none;align=left;verticalAlign=middle;spacingLeft=4;spacingRight=4;overflow=hidden;points=[[0,0.5],[1,0.5]];portConstraint=eastwest;rotatable=0;whiteSpace=wrap;html=1;" vertex="1" parent="XojkI3dCHt4RW8gFZH2C-16">
          <mxGeometry y="150" width="140" height="30" as="geometry" />
        </mxCell>
        <mxCell id="XojkI3dCHt4RW8gFZH2C-77" style="edgeStyle=orthogonalEdgeStyle;rounded=0;orthogonalLoop=1;jettySize=auto;html=1;endArrow=none;endFill=0;" edge="1" parent="1" source="XojkI3dCHt4RW8gFZH2C-23" target="XojkI3dCHt4RW8gFZH2C-30">
          <mxGeometry relative="1" as="geometry" />
        </mxCell>
        <mxCell id="XojkI3dCHt4RW8gFZH2C-94" style="edgeStyle=orthogonalEdgeStyle;rounded=0;orthogonalLoop=1;jettySize=auto;html=1;endArrow=none;endFill=0;" edge="1" parent="1" source="XojkI3dCHt4RW8gFZH2C-23" target="XojkI3dCHt4RW8gFZH2C-49">
          <mxGeometry relative="1" as="geometry">
            <Array as="points">
              <mxPoint x="1561" y="247" />
              <mxPoint x="1733" y="247" />
            </Array>
          </mxGeometry>
        </mxCell>
        <mxCell id="XojkI3dCHt4RW8gFZH2C-23" value="Dish" style="swimlane;fontStyle=0;childLayout=stackLayout;horizontal=1;startSize=30;horizontalStack=0;resizeParent=1;resizeParentMax=0;resizeLast=0;collapsible=1;marginBottom=0;whiteSpace=wrap;html=1;" vertex="1" parent="1">
          <mxGeometry x="1491" y="80" width="140" height="150" as="geometry" />
        </mxCell>
        <mxCell id="XojkI3dCHt4RW8gFZH2C-24" value="id: int" style="text;strokeColor=none;fillColor=none;align=left;verticalAlign=middle;spacingLeft=4;spacingRight=4;overflow=hidden;points=[[0,0.5],[1,0.5]];portConstraint=eastwest;rotatable=0;whiteSpace=wrap;html=1;" vertex="1" parent="XojkI3dCHt4RW8gFZH2C-23">
          <mxGeometry y="30" width="140" height="30" as="geometry" />
        </mxCell>
        <mxCell id="XojkI3dCHt4RW8gFZH2C-25" value="name: text" style="text;strokeColor=none;fillColor=none;align=left;verticalAlign=middle;spacingLeft=4;spacingRight=4;overflow=hidden;points=[[0,0.5],[1,0.5]];portConstraint=eastwest;rotatable=0;whiteSpace=wrap;html=1;" vertex="1" parent="XojkI3dCHt4RW8gFZH2C-23">
          <mxGeometry y="60" width="140" height="30" as="geometry" />
        </mxCell>
        <mxCell id="XojkI3dCHt4RW8gFZH2C-26" value="price: int" style="text;strokeColor=none;fillColor=none;align=left;verticalAlign=middle;spacingLeft=4;spacingRight=4;overflow=hidden;points=[[0,0.5],[1,0.5]];portConstraint=eastwest;rotatable=0;whiteSpace=wrap;html=1;" vertex="1" parent="XojkI3dCHt4RW8gFZH2C-23">
          <mxGeometry y="90" width="140" height="30" as="geometry" />
        </mxCell>
        <mxCell id="XojkI3dCHt4RW8gFZH2C-27" value="category_id: int" style="text;strokeColor=none;fillColor=none;align=left;verticalAlign=middle;spacingLeft=4;spacingRight=4;overflow=hidden;points=[[0,0.5],[1,0.5]];portConstraint=eastwest;rotatable=0;whiteSpace=wrap;html=1;" vertex="1" parent="XojkI3dCHt4RW8gFZH2C-23">
          <mxGeometry y="120" width="140" height="30" as="geometry" />
        </mxCell>
        <mxCell id="XojkI3dCHt4RW8gFZH2C-30" value="Category" style="swimlane;fontStyle=0;childLayout=stackLayout;horizontal=1;startSize=30;horizontalStack=0;resizeParent=1;resizeParentMax=0;resizeLast=0;collapsible=1;marginBottom=0;whiteSpace=wrap;html=1;" vertex="1" parent="1">
          <mxGeometry x="1694" y="110" width="140" height="90" as="geometry" />
        </mxCell>
        <mxCell id="XojkI3dCHt4RW8gFZH2C-31" value="id: int" style="text;strokeColor=none;fillColor=none;align=left;verticalAlign=middle;spacingLeft=4;spacingRight=4;overflow=hidden;points=[[0,0.5],[1,0.5]];portConstraint=eastwest;rotatable=0;whiteSpace=wrap;html=1;" vertex="1" parent="XojkI3dCHt4RW8gFZH2C-30">
          <mxGeometry y="30" width="140" height="30" as="geometry" />
        </mxCell>
        <mxCell id="XojkI3dCHt4RW8gFZH2C-32" value="name: text" style="text;strokeColor=none;fillColor=none;align=left;verticalAlign=middle;spacingLeft=4;spacingRight=4;overflow=hidden;points=[[0,0.5],[1,0.5]];portConstraint=eastwest;rotatable=0;whiteSpace=wrap;html=1;" vertex="1" parent="XojkI3dCHt4RW8gFZH2C-30">
          <mxGeometry y="60" width="140" height="30" as="geometry" />
        </mxCell>
        <mxCell id="XojkI3dCHt4RW8gFZH2C-80" style="edgeStyle=orthogonalEdgeStyle;rounded=0;orthogonalLoop=1;jettySize=auto;html=1;endArrow=none;endFill=0;" edge="1" parent="1" source="XojkI3dCHt4RW8gFZH2C-35" target="XojkI3dCHt4RW8gFZH2C-60">
          <mxGeometry relative="1" as="geometry" />
        </mxCell>
        <mxCell id="XojkI3dCHt4RW8gFZH2C-81" style="edgeStyle=orthogonalEdgeStyle;rounded=0;orthogonalLoop=1;jettySize=auto;html=1;endArrow=none;endFill=0;" edge="1" parent="1" source="XojkI3dCHt4RW8gFZH2C-35" target="XojkI3dCHt4RW8gFZH2C-42">
          <mxGeometry relative="1" as="geometry" />
        </mxCell>
        <mxCell id="XojkI3dCHt4RW8gFZH2C-82" style="edgeStyle=orthogonalEdgeStyle;rounded=0;orthogonalLoop=1;jettySize=auto;html=1;endArrow=none;endFill=0;" edge="1" parent="1" source="XojkI3dCHt4RW8gFZH2C-35" target="XojkI3dCHt4RW8gFZH2C-54">
          <mxGeometry relative="1" as="geometry" />
        </mxCell>
        <mxCell id="XojkI3dCHt4RW8gFZH2C-35" value="Customer" style="swimlane;fontStyle=0;childLayout=stackLayout;horizontal=1;startSize=30;horizontalStack=0;resizeParent=1;resizeParentMax=0;resizeLast=0;collapsible=1;marginBottom=0;whiteSpace=wrap;html=1;" vertex="1" parent="1">
          <mxGeometry x="1194" y="269" width="140" height="150" as="geometry" />
        </mxCell>
        <mxCell id="XojkI3dCHt4RW8gFZH2C-36" value="id: int" style="text;strokeColor=none;fillColor=none;align=left;verticalAlign=middle;spacingLeft=4;spacingRight=4;overflow=hidden;points=[[0,0.5],[1,0.5]];portConstraint=eastwest;rotatable=0;whiteSpace=wrap;html=1;" vertex="1" parent="XojkI3dCHt4RW8gFZH2C-35">
          <mxGeometry y="30" width="140" height="30" as="geometry" />
        </mxCell>
        <mxCell id="XojkI3dCHt4RW8gFZH2C-37" value="name: text" style="text;strokeColor=none;fillColor=none;align=left;verticalAlign=middle;spacingLeft=4;spacingRight=4;overflow=hidden;points=[[0,0.5],[1,0.5]];portConstraint=eastwest;rotatable=0;whiteSpace=wrap;html=1;" vertex="1" parent="XojkI3dCHt4RW8gFZH2C-35">
          <mxGeometry y="60" width="140" height="30" as="geometry" />
        </mxCell>
        <mxCell id="XojkI3dCHt4RW8gFZH2C-38" value="email: text" style="text;strokeColor=none;fillColor=none;align=left;verticalAlign=middle;spacingLeft=4;spacingRight=4;overflow=hidden;points=[[0,0.5],[1,0.5]];portConstraint=eastwest;rotatable=0;whiteSpace=wrap;html=1;" vertex="1" parent="XojkI3dCHt4RW8gFZH2C-35">
          <mxGeometry y="90" width="140" height="30" as="geometry" />
        </mxCell>
        <mxCell id="XojkI3dCHt4RW8gFZH2C-39" value="phone: text" style="text;strokeColor=none;fillColor=none;align=left;verticalAlign=middle;spacingLeft=4;spacingRight=4;overflow=hidden;points=[[0,0.5],[1,0.5]];portConstraint=eastwest;rotatable=0;whiteSpace=wrap;html=1;" vertex="1" parent="XojkI3dCHt4RW8gFZH2C-35">
          <mxGeometry y="120" width="140" height="30" as="geometry" />
        </mxCell>
        <mxCell id="XojkI3dCHt4RW8gFZH2C-42" value="Reservation" style="swimlane;fontStyle=0;childLayout=stackLayout;horizontal=1;startSize=30;horizontalStack=0;resizeParent=1;resizeParentMax=0;resizeLast=0;collapsible=1;marginBottom=0;whiteSpace=wrap;html=1;" vertex="1" parent="1">
          <mxGeometry x="875" y="274" width="140" height="208" as="geometry" />
        </mxCell>
        <mxCell id="XojkI3dCHt4RW8gFZH2C-43" value="id: int" style="text;strokeColor=none;fillColor=none;align=left;verticalAlign=middle;spacingLeft=4;spacingRight=4;overflow=hidden;points=[[0,0.5],[1,0.5]];portConstraint=eastwest;rotatable=0;whiteSpace=wrap;html=1;" vertex="1" parent="XojkI3dCHt4RW8gFZH2C-42">
          <mxGeometry y="30" width="140" height="30" as="geometry" />
        </mxCell>
        <mxCell id="XojkI3dCHt4RW8gFZH2C-44" value="customer_id: int" style="text;strokeColor=none;fillColor=none;align=left;verticalAlign=middle;spacingLeft=4;spacingRight=4;overflow=hidden;points=[[0,0.5],[1,0.5]];portConstraint=eastwest;rotatable=0;whiteSpace=wrap;html=1;" vertex="1" parent="XojkI3dCHt4RW8gFZH2C-42">
          <mxGeometry y="60" width="140" height="30" as="geometry" />
        </mxCell>
        <mxCell id="XojkI3dCHt4RW8gFZH2C-45" value="table_id: int" style="text;strokeColor=none;fillColor=none;align=left;verticalAlign=middle;spacingLeft=4;spacingRight=4;overflow=hidden;points=[[0,0.5],[1,0.5]];portConstraint=eastwest;rotatable=0;whiteSpace=wrap;html=1;" vertex="1" parent="XojkI3dCHt4RW8gFZH2C-42">
          <mxGeometry y="90" width="140" height="30" as="geometry" />
        </mxCell>
        <mxCell id="XojkI3dCHt4RW8gFZH2C-46" value="start_time: date" style="text;strokeColor=none;fillColor=none;align=left;verticalAlign=middle;spacingLeft=4;spacingRight=4;overflow=hidden;points=[[0,0.5],[1,0.5]];portConstraint=eastwest;rotatable=0;whiteSpace=wrap;html=1;" vertex="1" parent="XojkI3dCHt4RW8gFZH2C-42">
          <mxGeometry y="120" width="140" height="30" as="geometry" />
        </mxCell>
        <mxCell id="XojkI3dCHt4RW8gFZH2C-48" value="end_time: date" style="text;strokeColor=none;fillColor=none;align=left;verticalAlign=middle;spacingLeft=4;spacingRight=4;overflow=hidden;points=[[0,0.5],[1,0.5]];portConstraint=eastwest;rotatable=0;whiteSpace=wrap;html=1;" vertex="1" parent="XojkI3dCHt4RW8gFZH2C-42">
          <mxGeometry y="150" width="140" height="29" as="geometry" />
        </mxCell>
        <mxCell id="XojkI3dCHt4RW8gFZH2C-47" value="status: text" style="text;strokeColor=none;fillColor=none;align=left;verticalAlign=middle;spacingLeft=4;spacingRight=4;overflow=hidden;points=[[0,0.5],[1,0.5]];portConstraint=eastwest;rotatable=0;whiteSpace=wrap;html=1;" vertex="1" parent="XojkI3dCHt4RW8gFZH2C-42">
          <mxGeometry y="179" width="140" height="29" as="geometry" />
        </mxCell>
        <mxCell id="XojkI3dCHt4RW8gFZH2C-95" style="edgeStyle=orthogonalEdgeStyle;rounded=0;orthogonalLoop=1;jettySize=auto;html=1;endArrow=none;endFill=0;" edge="1" parent="1" source="XojkI3dCHt4RW8gFZH2C-49" target="XojkI3dCHt4RW8gFZH2C-89">
          <mxGeometry relative="1" as="geometry" />
        </mxCell>
        <mxCell id="XojkI3dCHt4RW8gFZH2C-49" value="Product" style="swimlane;fontStyle=0;childLayout=stackLayout;horizontal=1;startSize=30;horizontalStack=0;resizeParent=1;resizeParentMax=0;resizeLast=0;collapsible=1;marginBottom=0;whiteSpace=wrap;html=1;" vertex="1" parent="1">
          <mxGeometry x="1663" y="274" width="140" height="120" as="geometry" />
        </mxCell>
        <mxCell id="XojkI3dCHt4RW8gFZH2C-50" value="id: int" style="text;strokeColor=none;fillColor=none;align=left;verticalAlign=middle;spacingLeft=4;spacingRight=4;overflow=hidden;points=[[0,0.5],[1,0.5]];portConstraint=eastwest;rotatable=0;whiteSpace=wrap;html=1;" vertex="1" parent="XojkI3dCHt4RW8gFZH2C-49">
          <mxGeometry y="30" width="140" height="30" as="geometry" />
        </mxCell>
        <mxCell id="XojkI3dCHt4RW8gFZH2C-51" value="name: text" style="text;strokeColor=none;fillColor=none;align=left;verticalAlign=middle;spacingLeft=4;spacingRight=4;overflow=hidden;points=[[0,0.5],[1,0.5]];portConstraint=eastwest;rotatable=0;whiteSpace=wrap;html=1;" vertex="1" parent="XojkI3dCHt4RW8gFZH2C-49">
          <mxGeometry y="60" width="140" height="30" as="geometry" />
        </mxCell>
        <mxCell id="XojkI3dCHt4RW8gFZH2C-52" value="unit_cost: int" style="text;strokeColor=none;fillColor=none;align=left;verticalAlign=middle;spacingLeft=4;spacingRight=4;overflow=hidden;points=[[0,0.5],[1,0.5]];portConstraint=eastwest;rotatable=0;whiteSpace=wrap;html=1;" vertex="1" parent="XojkI3dCHt4RW8gFZH2C-49">
          <mxGeometry y="90" width="140" height="30" as="geometry" />
        </mxCell>
        <mxCell id="XojkI3dCHt4RW8gFZH2C-54" value="Feedback" style="swimlane;fontStyle=0;childLayout=stackLayout;horizontal=1;startSize=30;horizontalStack=0;resizeParent=1;resizeParentMax=0;resizeLast=0;collapsible=1;marginBottom=0;whiteSpace=wrap;html=1;" vertex="1" parent="1">
          <mxGeometry x="1450" y="286" width="140" height="180" as="geometry" />
        </mxCell>
        <mxCell id="XojkI3dCHt4RW8gFZH2C-55" value="id: int" style="text;strokeColor=none;fillColor=none;align=left;verticalAlign=middle;spacingLeft=4;spacingRight=4;overflow=hidden;points=[[0,0.5],[1,0.5]];portConstraint=eastwest;rotatable=0;whiteSpace=wrap;html=1;" vertex="1" parent="XojkI3dCHt4RW8gFZH2C-54">
          <mxGeometry y="30" width="140" height="30" as="geometry" />
        </mxCell>
        <mxCell id="XojkI3dCHt4RW8gFZH2C-56" value="customer_id: int" style="text;strokeColor=none;fillColor=none;align=left;verticalAlign=middle;spacingLeft=4;spacingRight=4;overflow=hidden;points=[[0,0.5],[1,0.5]];portConstraint=eastwest;rotatable=0;whiteSpace=wrap;html=1;" vertex="1" parent="XojkI3dCHt4RW8gFZH2C-54">
          <mxGeometry y="60" width="140" height="30" as="geometry" />
        </mxCell>
        <mxCell id="XojkI3dCHt4RW8gFZH2C-57" value="order_id: int" style="text;strokeColor=none;fillColor=none;align=left;verticalAlign=middle;spacingLeft=4;spacingRight=4;overflow=hidden;points=[[0,0.5],[1,0.5]];portConstraint=eastwest;rotatable=0;whiteSpace=wrap;html=1;" vertex="1" parent="XojkI3dCHt4RW8gFZH2C-54">
          <mxGeometry y="90" width="140" height="30" as="geometry" />
        </mxCell>
        <mxCell id="XojkI3dCHt4RW8gFZH2C-58" value="rating: int" style="text;strokeColor=none;fillColor=none;align=left;verticalAlign=middle;spacingLeft=4;spacingRight=4;overflow=hidden;points=[[0,0.5],[1,0.5]];portConstraint=eastwest;rotatable=0;whiteSpace=wrap;html=1;" vertex="1" parent="XojkI3dCHt4RW8gFZH2C-54">
          <mxGeometry y="120" width="140" height="30" as="geometry" />
        </mxCell>
        <mxCell id="XojkI3dCHt4RW8gFZH2C-59" value="comment: text" style="text;strokeColor=none;fillColor=none;align=left;verticalAlign=middle;spacingLeft=4;spacingRight=4;overflow=hidden;points=[[0,0.5],[1,0.5]];portConstraint=eastwest;rotatable=0;whiteSpace=wrap;html=1;" vertex="1" parent="XojkI3dCHt4RW8gFZH2C-54">
          <mxGeometry y="150" width="140" height="30" as="geometry" />
        </mxCell>
        <mxCell id="XojkI3dCHt4RW8gFZH2C-60" value="LoyaltyProgram" style="swimlane;fontStyle=0;childLayout=stackLayout;horizontal=1;startSize=30;horizontalStack=0;resizeParent=1;resizeParentMax=0;resizeLast=0;collapsible=1;marginBottom=0;whiteSpace=wrap;html=1;" vertex="1" parent="1">
          <mxGeometry x="1194" y="468" width="140" height="150" as="geometry" />
        </mxCell>
        <mxCell id="XojkI3dCHt4RW8gFZH2C-61" value="id: int" style="text;strokeColor=none;fillColor=none;align=left;verticalAlign=middle;spacingLeft=4;spacingRight=4;overflow=hidden;points=[[0,0.5],[1,0.5]];portConstraint=eastwest;rotatable=0;whiteSpace=wrap;html=1;" vertex="1" parent="XojkI3dCHt4RW8gFZH2C-60">
          <mxGeometry y="30" width="140" height="30" as="geometry" />
        </mxCell>
        <mxCell id="XojkI3dCHt4RW8gFZH2C-62" value="customer_id: int" style="text;strokeColor=none;fillColor=none;align=left;verticalAlign=middle;spacingLeft=4;spacingRight=4;overflow=hidden;points=[[0,0.5],[1,0.5]];portConstraint=eastwest;rotatable=0;whiteSpace=wrap;html=1;" vertex="1" parent="XojkI3dCHt4RW8gFZH2C-60">
          <mxGeometry y="60" width="140" height="30" as="geometry" />
        </mxCell>
        <mxCell id="XojkI3dCHt4RW8gFZH2C-63" value="points: int" style="text;strokeColor=none;fillColor=none;align=left;verticalAlign=middle;spacingLeft=4;spacingRight=4;overflow=hidden;points=[[0,0.5],[1,0.5]];portConstraint=eastwest;rotatable=0;whiteSpace=wrap;html=1;" vertex="1" parent="XojkI3dCHt4RW8gFZH2C-60">
          <mxGeometry y="90" width="140" height="30" as="geometry" />
        </mxCell>
        <mxCell id="XojkI3dCHt4RW8gFZH2C-64" value="expiry_date: date" style="text;strokeColor=none;fillColor=none;align=left;verticalAlign=middle;spacingLeft=4;spacingRight=4;overflow=hidden;points=[[0,0.5],[1,0.5]];portConstraint=eastwest;rotatable=0;whiteSpace=wrap;html=1;" vertex="1" parent="XojkI3dCHt4RW8gFZH2C-60">
          <mxGeometry y="120" width="140" height="30" as="geometry" />
        </mxCell>
        <mxCell id="XojkI3dCHt4RW8gFZH2C-66" style="edgeStyle=orthogonalEdgeStyle;rounded=0;orthogonalLoop=1;jettySize=auto;html=1;endArrow=none;endFill=0;" edge="1" parent="1" source="XojkI3dCHt4RW8gFZH2C-6" target="XojkI3dCHt4RW8gFZH2C-9">
          <mxGeometry relative="1" as="geometry" />
        </mxCell>
        <mxCell id="XojkI3dCHt4RW8gFZH2C-68" value="1" style="text;html=1;align=center;verticalAlign=middle;resizable=0;points=[];autosize=1;strokeColor=none;fillColor=none;" vertex="1" parent="1">
          <mxGeometry x="887" y="124" width="25" height="26" as="geometry" />
        </mxCell>
        <mxCell id="XojkI3dCHt4RW8gFZH2C-69" value="&lt;font style=&quot;font-size: 21px;&quot;&gt;∞&lt;/font&gt;" style="text;html=1;align=center;verticalAlign=middle;resizable=0;points=[];autosize=1;strokeColor=none;fillColor=none;strokeWidth=1;" vertex="1" parent="1">
          <mxGeometry x="982" y="119" width="33" height="37" as="geometry" />
        </mxCell>
        <mxCell id="XojkI3dCHt4RW8gFZH2C-70" style="edgeStyle=orthogonalEdgeStyle;rounded=0;orthogonalLoop=1;jettySize=auto;html=1;endArrow=none;endFill=0;" edge="1" parent="1" source="XojkI3dCHt4RW8gFZH2C-13" target="XojkI3dCHt4RW8gFZH2C-16">
          <mxGeometry relative="1" as="geometry" />
        </mxCell>
        <mxCell id="XojkI3dCHt4RW8gFZH2C-71" value="1" style="text;html=1;align=center;verticalAlign=middle;resizable=0;points=[];autosize=1;strokeColor=none;fillColor=none;" vertex="1" parent="1">
          <mxGeometry x="1161" y="124" width="25" height="26" as="geometry" />
        </mxCell>
        <mxCell id="XojkI3dCHt4RW8gFZH2C-72" value="&lt;font style=&quot;font-size: 21px;&quot;&gt;∞&lt;/font&gt;" style="text;html=1;align=center;verticalAlign=middle;resizable=0;points=[];autosize=1;strokeColor=none;fillColor=none;strokeWidth=1;" vertex="1" parent="1">
          <mxGeometry x="1244" y="119" width="33" height="37" as="geometry" />
        </mxCell>
        <mxCell id="XojkI3dCHt4RW8gFZH2C-75" value="1" style="text;html=1;align=center;verticalAlign=middle;resizable=0;points=[];autosize=1;strokeColor=none;fillColor=none;" vertex="1" parent="1">
          <mxGeometry x="1466" y="121.5" width="25" height="26" as="geometry" />
        </mxCell>
        <mxCell id="XojkI3dCHt4RW8gFZH2C-76" value="&lt;font style=&quot;font-size: 21px;&quot;&gt;∞&lt;/font&gt;" style="text;html=1;align=center;verticalAlign=middle;resizable=0;points=[];autosize=1;strokeColor=none;fillColor=none;strokeWidth=1;" vertex="1" parent="1">
          <mxGeometry x="1417" y="116" width="33" height="37" as="geometry" />
        </mxCell>
        <mxCell id="XojkI3dCHt4RW8gFZH2C-78" value="1" style="text;html=1;align=center;verticalAlign=middle;resizable=0;points=[];autosize=1;strokeColor=none;fillColor=none;" vertex="1" parent="1">
          <mxGeometry x="1631" y="127" width="25" height="26" as="geometry" />
        </mxCell>
        <mxCell id="XojkI3dCHt4RW8gFZH2C-79" value="1" style="text;html=1;align=center;verticalAlign=middle;resizable=0;points=[];autosize=1;strokeColor=none;fillColor=none;" vertex="1" parent="1">
          <mxGeometry x="1669" y="127" width="25" height="26" as="geometry" />
        </mxCell>
        <mxCell id="XojkI3dCHt4RW8gFZH2C-83" value="1" style="text;html=1;align=center;verticalAlign=middle;resizable=0;points=[];autosize=1;strokeColor=none;fillColor=none;" vertex="1" parent="1">
          <mxGeometry x="1238" y="419" width="25" height="26" as="geometry" />
        </mxCell>
        <mxCell id="XojkI3dCHt4RW8gFZH2C-84" value="1" style="text;html=1;align=center;verticalAlign=middle;resizable=0;points=[];autosize=1;strokeColor=none;fillColor=none;" vertex="1" parent="1">
          <mxGeometry x="1238" y="442" width="25" height="26" as="geometry" />
        </mxCell>
        <mxCell id="XojkI3dCHt4RW8gFZH2C-85" value="1" style="text;html=1;align=center;verticalAlign=middle;resizable=0;points=[];autosize=1;strokeColor=none;fillColor=none;" vertex="1" parent="1">
          <mxGeometry x="1334.5" y="315" width="25" height="26" as="geometry" />
        </mxCell>
        <mxCell id="XojkI3dCHt4RW8gFZH2C-86" value="1" style="text;html=1;align=center;verticalAlign=middle;resizable=0;points=[];autosize=1;strokeColor=none;fillColor=none;" vertex="1" parent="1">
          <mxGeometry x="1169" y="318" width="25" height="26" as="geometry" />
        </mxCell>
        <mxCell id="XojkI3dCHt4RW8gFZH2C-87" value="&lt;font style=&quot;font-size: 21px;&quot;&gt;∞&lt;/font&gt;" style="text;html=1;align=center;verticalAlign=middle;resizable=0;points=[];autosize=1;strokeColor=none;fillColor=none;strokeWidth=1;" vertex="1" parent="1">
          <mxGeometry x="1015" y="344" width="33" height="37" as="geometry" />
        </mxCell>
        <mxCell id="XojkI3dCHt4RW8gFZH2C-88" value="&lt;font style=&quot;font-size: 21px;&quot;&gt;∞&lt;/font&gt;" style="text;html=1;align=center;verticalAlign=middle;resizable=0;points=[];autosize=1;strokeColor=none;fillColor=none;strokeWidth=1;" vertex="1" parent="1">
          <mxGeometry x="1419" y="344" width="33" height="37" as="geometry" />
        </mxCell>
        <mxCell id="XojkI3dCHt4RW8gFZH2C-89" value="Inventory" style="swimlane;fontStyle=0;childLayout=stackLayout;horizontal=1;startSize=30;horizontalStack=0;resizeParent=1;resizeParentMax=0;resizeLast=0;collapsible=1;marginBottom=0;whiteSpace=wrap;html=1;" vertex="1" parent="1">
          <mxGeometry x="1663" y="463" width="140" height="150" as="geometry" />
        </mxCell>
        <mxCell id="XojkI3dCHt4RW8gFZH2C-90" value="id: int" style="text;strokeColor=none;fillColor=none;align=left;verticalAlign=middle;spacingLeft=4;spacingRight=4;overflow=hidden;points=[[0,0.5],[1,0.5]];portConstraint=eastwest;rotatable=0;whiteSpace=wrap;html=1;" vertex="1" parent="XojkI3dCHt4RW8gFZH2C-89">
          <mxGeometry y="30" width="140" height="30" as="geometry" />
        </mxCell>
        <mxCell id="XojkI3dCHt4RW8gFZH2C-91" value="product_id: int" style="text;strokeColor=none;fillColor=none;align=left;verticalAlign=middle;spacingLeft=4;spacingRight=4;overflow=hidden;points=[[0,0.5],[1,0.5]];portConstraint=eastwest;rotatable=0;whiteSpace=wrap;html=1;" vertex="1" parent="XojkI3dCHt4RW8gFZH2C-89">
          <mxGeometry y="60" width="140" height="30" as="geometry" />
        </mxCell>
        <mxCell id="XojkI3dCHt4RW8gFZH2C-92" value="amount: int" style="text;strokeColor=none;fillColor=none;align=left;verticalAlign=middle;spacingLeft=4;spacingRight=4;overflow=hidden;points=[[0,0.5],[1,0.5]];portConstraint=eastwest;rotatable=0;whiteSpace=wrap;html=1;" vertex="1" parent="XojkI3dCHt4RW8gFZH2C-89">
          <mxGeometry y="90" width="140" height="30" as="geometry" />
        </mxCell>
        <mxCell id="XojkI3dCHt4RW8gFZH2C-93" value="min_threshold: int" style="text;strokeColor=none;fillColor=none;align=left;verticalAlign=middle;spacingLeft=4;spacingRight=4;overflow=hidden;points=[[0,0.5],[1,0.5]];portConstraint=eastwest;rotatable=0;whiteSpace=wrap;html=1;" vertex="1" parent="XojkI3dCHt4RW8gFZH2C-89">
          <mxGeometry y="120" width="140" height="30" as="geometry" />
        </mxCell>
        <mxCell id="XojkI3dCHt4RW8gFZH2C-96" value="1" style="text;html=1;align=center;verticalAlign=middle;resizable=0;points=[];autosize=1;strokeColor=none;fillColor=none;" vertex="1" parent="1">
          <mxGeometry x="1734" y="391" width="25" height="26" as="geometry" />
        </mxCell>
        <mxCell id="XojkI3dCHt4RW8gFZH2C-97" value="1" style="text;html=1;align=center;verticalAlign=middle;resizable=0;points=[];autosize=1;strokeColor=none;fillColor=none;" vertex="1" parent="1">
          <mxGeometry x="1734" y="434" width="25" height="26" as="geometry" />
        </mxCell>
        <mxCell id="XojkI3dCHt4RW8gFZH2C-98" value="1" style="text;html=1;align=center;verticalAlign=middle;resizable=0;points=[];autosize=1;strokeColor=none;fillColor=none;" vertex="1" parent="1">
          <mxGeometry x="1535" y="230" width="25" height="26" as="geometry" />
        </mxCell>
        <mxCell id="XojkI3dCHt4RW8gFZH2C-99" value="&lt;font style=&quot;font-size: 21px;&quot;&gt;∞&lt;/font&gt;" style="text;html=1;align=center;verticalAlign=middle;resizable=0;points=[];autosize=1;strokeColor=none;fillColor=none;strokeWidth=1;" vertex="1" parent="1">
          <mxGeometry x="1734" y="240" width="33" height="37" as="geometry" />
        </mxCell>
      </root>
    </mxGraphModel>
  </diagram>
</mxfile>
